<svg width="25" height="25" viewBox="0 0 25 25" fill="none" xmlns="http://www.w3.org/2000/svg">
<path d="M7.53397 0.660645H17.6215C21.4643 0.660645 24.5866 3.78297 24.5866 7.62582V17.7133C24.5866 19.5606 23.8528 21.3322 22.5466 22.6384C21.2404 23.9447 19.4687 24.6785 17.6215 24.6785H7.53397C3.69111 24.6785 0.568787 21.5562 0.568787 17.7133V7.62582C0.568787 5.77854 1.30262 4.00692 2.60884 2.7007C3.91506 1.39447 5.68669 0.660645 7.53397 0.660645ZM7.29379 3.06243C6.1472 3.06243 5.04757 3.51791 4.23681 4.32867C3.42605 5.13943 2.97057 6.23906 2.97057 7.38564V17.9535C2.97057 20.3433 4.90401 22.2767 7.29379 22.2767H17.8616C19.0082 22.2767 20.1079 21.8212 20.9186 21.0105C21.7294 20.1997 22.1849 19.1001 22.1849 17.9535V7.38564C22.1849 4.99587 20.2514 3.06243 17.8616 3.06243H7.29379ZM18.8824 4.86377C19.2805 4.86377 19.6623 5.02192 19.9439 5.30344C20.2254 5.58495 20.3835 5.96676 20.3835 6.36489C20.3835 6.76301 20.2254 7.14482 19.9439 7.42633C19.6623 7.70785 19.2805 7.866 18.8824 7.866C18.4843 7.866 18.1025 7.70785 17.821 7.42633C17.5394 7.14482 17.3813 6.76301 17.3813 6.36489C17.3813 5.96676 17.5394 5.58495 17.821 5.30344C18.1025 5.02192 18.4843 4.86377 18.8824 4.86377ZM12.5777 6.66511C14.1702 6.66511 15.6975 7.29772 16.8235 8.42378C17.9496 9.54983 18.5822 11.0771 18.5822 12.6696C18.5822 14.2621 17.9496 15.7893 16.8235 16.9154C15.6975 18.0414 14.1702 18.674 12.5777 18.674C10.9852 18.674 9.45797 18.0414 8.33192 16.9154C7.20586 15.7893 6.57325 14.2621 6.57325 12.6696C6.57325 11.0771 7.20586 9.54983 8.33192 8.42378C9.45797 7.29772 10.9852 6.66511 12.5777 6.66511ZM12.5777 9.06689C11.6222 9.06689 10.7059 9.44646 10.0302 10.1221C9.3546 10.7977 8.97504 11.7141 8.97504 12.6696C8.97504 13.6251 9.3546 14.5414 10.0302 15.2171C10.7059 15.8927 11.6222 16.2723 12.5777 16.2723C13.5332 16.2723 14.4496 15.8927 15.1252 15.2171C15.8008 14.5414 16.1804 13.6251 16.1804 12.6696C16.1804 11.7141 15.8008 10.7977 15.1252 10.1221C14.4496 9.44646 13.5332 9.06689 12.5777 9.06689Z" fill="#FEFEFE"/>
</svg>
