<svg width="40" height="45" viewBox="0 0 40 45" fill="none" xmlns="http://www.w3.org/2000/svg">
<g filter="url(#filter0_d_1_557)">
<path d="M20 3.33325C13.55 3.33325 8.33331 8.54992 8.33331 14.9999C8.33331 23.7499 20 36.6666 20 36.6666C20 36.6666 31.6666 23.7499 31.6666 14.9999C31.6666 8.54992 26.45 3.33325 20 3.33325ZM11.6666 14.9999C11.6666 10.3999 15.4 6.66659 20 6.66659C24.6 6.66659 28.3333 10.3999 28.3333 14.9999C28.3333 19.7999 23.5333 26.9833 20 31.4666C16.5333 27.0166 11.6666 19.7499 11.6666 14.9999Z" fill="white"/>
<path d="M20 19.1666C22.3012 19.1666 24.1666 17.3011 24.1666 14.9999C24.1666 12.6987 22.3012 10.8333 20 10.8333C17.6988 10.8333 15.8333 12.6987 15.8333 14.9999C15.8333 17.3011 17.6988 19.1666 20 19.1666Z" fill="white"/>
</g>
<defs>
<filter id="filter0_d_1_557" x="-4" y="0" width="48" height="48" filterUnits="userSpaceOnUse" color-interpolation-filters="sRGB">
<feFlood flood-opacity="0" result="BackgroundImageFix"/>
<feColorMatrix in="SourceAlpha" type="matrix" values="0 0 0 0 0 0 0 0 0 0 0 0 0 0 0 0 0 0 127 0" result="hardAlpha"/>
<feOffset dy="4"/>
<feGaussianBlur stdDeviation="2"/>
<feComposite in2="hardAlpha" operator="out"/>
<feColorMatrix type="matrix" values="0 0 0 0 0 0 0 0 0 0 0 0 0 0 0 0 0 0 0.25 0"/>
<feBlend mode="normal" in2="BackgroundImageFix" result="effect1_dropShadow_1_557"/>
<feBlend mode="normal" in="SourceGraphic" in2="effect1_dropShadow_1_557" result="shape"/>
</filter>
</defs>
</svg>
