<svg width="30" height="30" viewBox="0 0 30 30" fill="none" xmlns="http://www.w3.org/2000/svg">
<path fill-rule="evenodd" clip-rule="evenodd" d="M14.7989 29.3526H14.793C12.4045 29.3517 10.0576 28.7525 7.97319 27.6155L0.407837 29.6L2.43245 22.2049C1.18357 20.0406 0.526416 17.5855 0.527487 15.0703C0.530617 7.20174 6.93265 0.800049 14.7988 0.800049C18.6165 0.801697 22.1997 2.28791 24.894 4.98546C27.5884 7.68287 29.0715 11.2684 29.07 15.0816C29.0668 22.9483 22.6673 29.3494 14.7989 29.3526ZM8.3237 25.0319L8.75684 25.289C10.578 26.3697 12.6656 26.9416 14.7941 26.9424H14.7989C21.3367 26.9424 26.6578 21.6212 26.6604 15.0807C26.6616 11.9113 25.429 8.93113 23.1895 6.68904C20.95 4.44694 17.9718 3.21158 14.8036 3.21048C8.26076 3.21048 2.93961 8.53115 2.93702 15.0711C2.9361 17.3124 3.56321 19.4952 4.75058 21.3837L5.03261 21.8325L3.83432 26.2096L8.3237 25.0319ZM21.5002 18.1541C21.749 18.2743 21.9169 18.3555 21.9886 18.4752C22.0777 18.6239 22.0777 19.3378 21.7807 20.1709C21.4835 21.0038 20.0589 21.764 19.3737 21.8664C18.7594 21.9582 17.982 21.9965 17.1278 21.7251C16.6099 21.5608 15.9457 21.3414 15.0949 20.9739C11.752 19.5305 9.49286 16.2904 9.06589 15.6781C9.03598 15.6352 9.01506 15.6052 9.00339 15.5896L9.00051 15.5858C8.8118 15.334 7.54735 13.6469 7.54735 11.9008C7.54735 10.2583 8.35419 9.39735 8.72558 9.00106C8.75103 8.97391 8.77443 8.94894 8.79538 8.92605C9.12223 8.56905 9.50857 8.4798 9.74628 8.4798C9.98397 8.4798 10.222 8.482 10.4297 8.49243C10.4553 8.49372 10.482 8.49356 10.5096 8.4934C10.7174 8.49218 10.9764 8.49067 11.232 9.10455C11.3303 9.34081 11.4742 9.69106 11.6259 10.0605C11.9328 10.8075 12.2718 11.6328 12.3314 11.7523C12.4206 11.9308 12.48 12.1389 12.3612 12.377C12.3433 12.4127 12.3268 12.4464 12.3111 12.4786C12.2218 12.6608 12.1561 12.7949 12.0046 12.9718C11.945 13.0414 11.8834 13.1164 11.8219 13.1914C11.6992 13.3408 11.5765 13.4902 11.4697 13.5966C11.2912 13.7744 11.1054 13.9673 11.3134 14.3243C11.5214 14.6813 12.237 15.849 13.2971 16.7945C14.4366 17.8109 15.427 18.2405 15.929 18.4583C16.027 18.5008 16.1065 18.5353 16.1647 18.5644C16.5212 18.743 16.7292 18.7131 16.9372 18.4752C17.1452 18.2372 17.8286 17.4339 18.0663 17.077C18.304 16.7201 18.5418 16.7796 18.8686 16.8985C19.1955 17.0176 20.9486 17.8802 21.3052 18.0586C21.3748 18.0935 21.4399 18.125 21.5002 18.1541Z" fill="#FDFDFD"/>
</svg>
