<svg width="1609" height="5467" viewBox="0 0 1609 5467" fill="none" xmlns="http://www.w3.org/2000/svg">
<rect x="90" width="1440" height="4999" fill="#E2F2F2"/>
<path d="M87.0078 2051.99L147.549 2043.47C208.091 2034.95 329.174 2017.91 450.258 2041.95C571.341 2065.81 692.424 2130.94 813.508 2155.55C934.591 2180.17 1055.67 2164.26 1176.76 2172.78C1297.84 2181.3 1418.92 2214.25 1479.47 2230.53L1540.01 2247V1679H1479.47C1418.92 1679 1297.84 1679 1176.76 1679C1055.67 1679 934.591 1679 813.508 1679C692.424 1679 571.341 1679 450.258 1679C329.174 1679 208.091 1679 147.549 1679H87.0078V2051.99Z" fill="url(#paint0_linear_2_1647)"/>
<path d="M8.00781 1451.49L37.6967 1452.33C67.2078 1453.46 126.586 1455.15 185.786 1438.79C244.986 1422.43 304.363 1387.44 363.563 1380.39C422.763 1373.34 482.141 1394.22 541.341 1417.63C600.541 1441.05 659.919 1467.57 719.119 1468.98C778.319 1470.39 837.697 1446.69 896.897 1433.71C956.097 1420.45 1015.47 1417.63 1074.67 1424.12C1133.87 1430.89 1193.25 1446.69 1252.45 1458.54C1311.65 1470.39 1371.03 1477.72 1430.23 1467.57C1489.43 1457.13 1548.81 1428.92 1578.32 1414.81L1608.01 1400.7V1680H1578.32C1548.81 1680 1489.43 1680 1430.23 1680C1371.03 1680 1311.65 1680 1252.45 1680C1193.25 1680 1133.87 1680 1074.67 1680C1015.47 1680 956.097 1680 896.897 1680C837.697 1680 778.319 1680 719.119 1680C659.919 1680 600.541 1680 541.341 1680C482.141 1680 422.763 1680 363.563 1680C304.363 1680 244.986 1680 185.786 1680C126.586 1680 67.2078 1680 37.6967 1680H8.00781V1451.49Z" fill="url(#paint1_linear_2_1647)"/>
<path d="M79 5191.3L139.542 5179.26C200.083 5167.21 321.167 5143.12 442.25 5177.12C563.333 5210.84 684.417 5302.92 805.5 5337.72C926.583 5372.51 1047.67 5350.03 1168.75 5362.07C1289.83 5374.12 1410.92 5420.69 1471.46 5443.71L1532 5467V4664H1471.46C1410.92 4664 1289.83 4664 1168.75 4664C1047.67 4664 926.583 4664 805.5 4664C684.417 4664 563.333 4664 442.25 4664C321.167 4664 200.083 4664 139.542 4664H79V5191.3Z" fill="url(#paint2_linear_2_1647)"/>
<path d="M0 4450.15L29.6889 4450.95C59.2 4452.01 118.578 4453.6 177.778 4438.21C236.978 4422.83 296.356 4389.94 355.556 4383.31C414.756 4376.68 474.133 4396.31 533.333 4418.32C592.533 4440.34 651.911 4465.27 711.111 4466.6C770.311 4467.92 829.689 4445.64 888.889 4433.44C948.089 4420.97 1007.47 4418.32 1066.67 4424.42C1125.87 4430.79 1185.24 4445.64 1244.44 4456.78C1303.64 4467.92 1363.02 4474.82 1422.22 4465.27C1481.42 4455.46 1540.8 4428.93 1570.31 4415.67L1600 4402.41V4665H1570.31C1540.8 4665 1481.42 4665 1422.22 4665C1363.02 4665 1303.64 4665 1244.44 4665C1185.24 4665 1125.87 4665 1066.67 4665C1007.47 4665 948.089 4665 888.889 4665C829.689 4665 770.311 4665 711.111 4665C651.911 4665 592.533 4665 533.333 4665C474.133 4665 414.756 4665 355.556 4665C296.356 4665 236.978 4665 177.778 4665C118.578 4665 59.2 4665 29.6889 4665H0V4450.15Z" fill="url(#paint3_linear_2_1647)"/>
<path d="M69 3074L109.639 3072.23C150.278 3070.39 231.556 3066.86 312.833 3062.87C394.111 3058.88 475.389 3054.58 556.667 3039.08C637.944 3023.58 719.222 2997.03 800.5 2991.88C881.778 2986.74 963.056 3003.17 1044.33 3004.01C1125.61 3004.93 1206.89 2990.35 1288.17 2992.27C1369.44 2994.19 1450.72 3012.6 1491.36 3021.81L1532 3031.02V2909H1491.36C1450.72 2909 1369.44 2909 1288.17 2909C1206.89 2909 1125.61 2909 1044.33 2909C963.056 2909 881.778 2909 800.5 2909C719.222 2909 637.944 2909 556.667 2909C475.389 2909 394.111 2909 312.833 2909C231.556 2909 150.278 2909 109.639 2909H69V3074Z" fill="url(#paint4_linear_2_1647)"/>
<path d="M87 2539.28L113.776 2540.65C140.391 2542.47 193.942 2545.21 247.333 2518.74C300.724 2492.26 354.276 2435.66 407.667 2424.25C461.058 2412.84 514.609 2446.62 568 2484.5C621.391 2522.39 674.942 2565.29 728.333 2567.58C781.724 2569.86 835.276 2531.52 888.667 2510.52C942.058 2489.07 995.609 2484.5 1049 2495C1102.39 2505.96 1155.94 2531.52 1209.33 2550.69C1262.72 2569.86 1316.28 2581.73 1369.67 2565.29C1423.06 2548.41 1476.61 2502.76 1503.22 2479.94L1530 2457.12V2909H1503.22C1476.61 2909 1423.06 2909 1369.67 2909C1316.28 2909 1262.72 2909 1209.33 2909C1155.94 2909 1102.39 2909 1049 2909C995.609 2909 942.058 2909 888.667 2909C835.276 2909 781.724 2909 728.333 2909C674.942 2909 621.391 2909 568 2909C514.609 2909 461.058 2909 407.667 2909C354.276 2909 300.724 2909 247.333 2909C193.942 2909 140.391 2909 113.776 2909H87V2539.28Z" fill="url(#paint5_linear_2_1647)"/>
<defs>
<linearGradient id="paint0_linear_2_1647" x1="87.0078" y1="1679" x2="1571.26" y2="1809.41" gradientUnits="userSpaceOnUse">
<stop stop-color="#1D6FAA"/>
<stop offset="1" stop-color="#6CC8FA"/>
</linearGradient>
<linearGradient id="paint1_linear_2_1647" x1="1551.51" y1="1416.03" x2="61.7256" y2="1501.69" gradientUnits="userSpaceOnUse">
<stop stop-color="#6DCAFB"/>
<stop offset="1" stop-color="#1D6FAA"/>
</linearGradient>
<linearGradient id="paint2_linear_2_1647" x1="79" y1="4664" x2="1568.96" y2="4756.6" gradientUnits="userSpaceOnUse">
<stop stop-color="#1D6FAA"/>
<stop offset="1" stop-color="#6CC8FA"/>
</linearGradient>
<linearGradient id="paint3_linear_2_1647" x1="1543.5" y1="4416.81" x2="54.3619" y2="4507.88" gradientUnits="userSpaceOnUse">
<stop stop-color="#6DCAFB"/>
<stop offset="1" stop-color="#1D6FAA"/>
</linearGradient>
<linearGradient id="paint4_linear_2_1647" x1="1532" y1="2909" x2="77.3095" y2="3030.35" gradientUnits="userSpaceOnUse">
<stop stop-color="#69C4F7"/>
<stop offset="1" stop-color="#2376B1"/>
</linearGradient>
<linearGradient id="paint5_linear_2_1647" x1="1564.51" y1="2909" x2="286.342" y2="2223.61" gradientUnits="userSpaceOnUse">
<stop stop-color="#69C4F7"/>
<stop offset="1" stop-color="#2376B1"/>
</linearGradient>
</defs>
</svg>
