<svg width="29" height="20" viewBox="0 0 29 20" fill="none" xmlns="http://www.w3.org/2000/svg">
<path d="M28.7133 4.4001C28.7133 4.4001 28.4398 2.46963 27.5977 1.62197C26.5312 0.506348 25.3391 0.500879 24.7922 0.435254C20.8766 0.150879 14.9977 0.150879 14.9977 0.150879H14.9867C14.9867 0.150879 9.10781 0.150879 5.19219 0.435254C4.64531 0.500879 3.45312 0.506348 2.38672 1.62197C1.54453 2.46963 1.27656 4.4001 1.27656 4.4001C1.27656 4.4001 0.992188 6.66963 0.992188 8.93369V11.0556C0.992188 13.3196 1.27109 15.5892 1.27109 15.5892C1.27109 15.5892 1.54453 17.5196 2.38125 18.3673C3.44766 19.4829 4.84766 19.4446 5.47109 19.5649C7.71328 19.7782 14.9922 19.8438 14.9922 19.8438C14.9922 19.8438 20.8766 19.8329 24.7922 19.554C25.3391 19.4884 26.5312 19.4829 27.5977 18.3673C28.4398 17.5196 28.7133 15.5892 28.7133 15.5892C28.7133 15.5892 28.9922 13.3251 28.9922 11.0556V8.93369C28.9922 6.66963 28.7133 4.4001 28.7133 4.4001ZM12.0992 13.6313V5.76182L19.6625 9.71025L12.0992 13.6313Z" fill="white"/>
</svg>
