<svg width="1440" height="5000" viewBox="0 0 1440 5000" fill="none" xmlns="http://www.w3.org/2000/svg">
<g style="mix-blend-mode:darken">
<rect x="6" y="-4" width="1440" height="4999" fill="#E2F2F2"/>
<path d="M3.00781 2047.99L63.5495 2039.47C124.091 2030.95 245.174 2013.91 366.258 2037.95C487.341 2061.81 608.424 2126.94 729.508 2151.55C850.591 2176.17 971.674 2160.26 1092.76 2168.78C1213.84 2177.3 1334.92 2210.25 1395.47 2226.53L1456.01 2243V1675H1395.47C1334.92 1675 1213.84 1675 1092.76 1675C971.674 1675 850.591 1675 729.508 1675C608.424 1675 487.341 1675 366.258 1675C245.174 1675 124.091 1675 63.5495 1675H3.00781V2047.99Z" fill="url(#paint0_linear_2_1647)"/>
<path d="M-75.9922 1447.49L-46.3033 1448.33C-16.7922 1449.46 42.5856 1451.15 101.786 1434.79C160.986 1418.43 220.363 1383.44 279.563 1376.39C338.763 1369.34 398.141 1390.22 457.341 1413.63C516.541 1437.05 575.919 1463.57 635.119 1464.98C694.319 1466.39 753.697 1442.69 812.897 1429.71C872.097 1416.45 931.474 1413.63 990.674 1420.12C1049.87 1426.89 1109.25 1442.69 1168.45 1454.54C1227.65 1466.39 1287.03 1473.72 1346.23 1463.57C1405.43 1453.13 1464.81 1424.92 1494.32 1410.81L1524.01 1396.7V1676H1494.32C1464.81 1676 1405.43 1676 1346.23 1676C1287.03 1676 1227.65 1676 1168.45 1676C1109.25 1676 1049.87 1676 990.674 1676C931.474 1676 872.097 1676 812.897 1676C753.697 1676 694.319 1676 635.119 1676C575.919 1676 516.541 1676 457.341 1676C398.141 1676 338.763 1676 279.563 1676C220.363 1676 160.986 1676 101.786 1676C42.5856 1676 -16.7922 1676 -46.3033 1676H-75.9922V1447.49Z" fill="url(#paint1_linear_2_1647)"/>
<path d="M-5 5187.3L55.5417 5175.26C116.083 5163.21 237.167 5139.12 358.25 5173.12C479.333 5206.84 600.417 5298.92 721.5 5333.72C842.583 5368.51 963.667 5346.03 1084.75 5358.07C1205.83 5370.12 1326.92 5416.69 1387.46 5439.71L1448 5463V4660H1387.46C1326.92 4660 1205.83 4660 1084.75 4660C963.667 4660 842.583 4660 721.5 4660C600.417 4660 479.333 4660 358.25 4660C237.167 4660 116.083 4660 55.5417 4660H-5V5187.3Z" fill="url(#paint2_linear_2_1647)"/>
<path d="M-84 4446.15L-54.3111 4446.95C-24.8 4448.01 34.5778 4449.6 93.7778 4434.21C152.978 4418.83 212.356 4385.94 271.556 4379.31C330.756 4372.68 390.133 4392.31 449.333 4414.32C508.533 4436.34 567.911 4461.27 627.111 4462.6C686.311 4463.92 745.689 4441.64 804.889 4429.44C864.089 4416.97 923.467 4414.32 982.667 4420.42C1041.87 4426.79 1101.24 4441.64 1160.44 4452.78C1219.64 4463.92 1279.02 4470.82 1338.22 4461.27C1397.42 4451.46 1456.8 4424.93 1486.31 4411.67L1516 4398.41V4661H1486.31C1456.8 4661 1397.42 4661 1338.22 4661C1279.02 4661 1219.64 4661 1160.44 4661C1101.24 4661 1041.87 4661 982.667 4661C923.467 4661 864.089 4661 804.889 4661C745.689 4661 686.311 4661 627.111 4661C567.911 4661 508.533 4661 449.333 4661C390.133 4661 330.756 4661 271.556 4661C212.356 4661 152.978 4661 93.7778 4661C34.5778 4661 -24.8 4661 -54.3111 4661H-84V4446.15Z" fill="url(#paint3_linear_2_1647)"/>
<path d="M-26 3070L14.6389 3068.23C55.2778 3066.39 136.556 3062.86 217.833 3058.87C299.111 3054.88 380.389 3050.58 461.667 3035.08C542.944 3019.58 624.222 2993.03 705.5 2987.88C786.778 2982.74 868.056 2999.17 949.333 3000.01C1030.61 3000.93 1111.89 2986.35 1193.17 2988.27C1274.44 2990.19 1355.72 3008.6 1396.36 3017.81L1437 3027.02V2905H1396.36C1355.72 2905 1274.44 2905 1193.17 2905C1111.89 2905 1030.61 2905 949.333 2905C868.056 2905 786.778 2905 705.5 2905C624.222 2905 542.944 2905 461.667 2905C380.389 2905 299.111 2905 217.833 2905C136.556 2905 55.2778 2905 14.6389 2905H-26V3070Z" fill="url(#paint4_linear_2_1647)"/>
<path d="M-6 2543.28L20.7757 2544.65C47.391 2546.47 100.942 2549.21 154.333 2522.74C207.724 2496.26 261.276 2439.66 314.667 2428.25C368.058 2416.84 421.609 2450.62 475 2488.5C528.391 2526.39 581.942 2569.29 635.333 2571.58C688.724 2573.86 742.276 2535.52 795.667 2514.52C849.058 2493.07 902.609 2488.5 956 2499C1009.39 2509.96 1062.94 2535.52 1116.33 2554.69C1169.72 2573.86 1223.28 2585.73 1276.67 2569.29C1330.06 2552.41 1383.61 2506.76 1410.22 2483.94L1437 2461.12V2913H1410.22C1383.61 2913 1330.06 2913 1276.67 2913C1223.28 2913 1169.72 2913 1116.33 2913C1062.94 2913 1009.39 2913 956 2913C902.609 2913 849.058 2913 795.667 2913C742.276 2913 688.724 2913 635.333 2913C581.942 2913 528.391 2913 475 2913C421.609 2913 368.058 2913 314.667 2913C261.276 2913 207.724 2913 154.333 2913C100.942 2913 47.391 2913 20.7757 2913H-6V2543.28Z" fill="url(#paint5_linear_2_1647)"/>
</g>
<defs>
<linearGradient id="paint0_linear_2_1647" x1="3.00781" y1="1675" x2="1487.26" y2="1805.41" gradientUnits="userSpaceOnUse">
<stop offset="0.994692" stop-color="#007BD2"/>
<stop offset="0.994792" stop-color="#6CC8FA"/>
</linearGradient>
<linearGradient id="paint1_linear_2_1647" x1="1707" y1="1375" x2="-315.395" y2="1553.25" gradientUnits="userSpaceOnUse">
<stop stop-color="#00A3FF"/>
<stop offset="0.0001" stop-color="#007BD2"/>
</linearGradient>
<linearGradient id="paint2_linear_2_1647" x1="-5" y1="4660" x2="1484.96" y2="4752.6" gradientUnits="userSpaceOnUse">
<stop stop-color="#6CC8FA"/>
<stop offset="0.0001" stop-color="#007BD2"/>
</linearGradient>
<linearGradient id="paint3_linear_2_1647" x1="1672.5" y1="4378" x2="-30.9225" y2="4481.21" gradientUnits="userSpaceOnUse">
<stop offset="0.9999" stop-color="#007BD2"/>
<stop offset="1" stop-color="#1D6FAA"/>
</linearGradient>
<linearGradient id="paint4_linear_2_1647" x1="1437" y1="3070" x2="-30.4178" y2="3005.48" gradientUnits="userSpaceOnUse">
<stop stop-color="#00A3FF"/>
<stop offset="0.0001" stop-color="#00A3FF"/>
<stop offset="0.0002" stop-color="#007BD2"/>
</linearGradient>
<linearGradient id="paint5_linear_2_1647" x1="1437" y1="2913" x2="209.372" y2="2172.47" gradientUnits="userSpaceOnUse">
<stop offset="0.9999" stop-color="#007BD2"/>
<stop offset="1" stop-color="#6DCAFB"/>
</linearGradient>
</defs>
</svg>
